<svg height="16" width="16" xmlns="http://www.w3.org/2000/svg"><g fill="none" stroke="#000"><path d="M9.84 11.78l4.523-1.974L12.8 6.224 8.278 8.197zM7.708 6.917l4.638-2.023-1.563-3.583-4.638 2.024z" stroke-width=".627"/><path d="M3.706 1.864c4.77 10.97 5.339 12.097 5.339 12.097l5.687-2.559"/><path d="M5.546 14.54a1.267 1.267 0 1 1 2.507-.363 1.267 1.267 0 0 1-2.507.364z" stroke-width=".733"/><path d="M4.037 1.266C1.922 2.41.869 1.321 1.855 2.94" stroke-width=".88"/><path d="M7.688 8.359l5.57-2.416" stroke-width=".643"/><path d="M5.556 3.497L11.32.984" stroke-width=".666"/></g><path d="M11.959 9.446c-.063-.158-.174-.172-.707-.114-.487.057-.872-.027-1.039-.45-.169-.426.073-.89.763-1.162.408-.162.797-.174 1.056-.104l-.121.542a1.32 1.32 0 0 0-.717.074c-.231.091-.317.194-.268.316.048.123.163.135.69.084.519-.053.886-.015 1.073.457.21.531-.21 1.007-.828 1.252-.467.185-.88.19-1.216.072l.205-.544c.244.072.52.068.802-.044.236-.093.366-.229.307-.379zM10.738 5.16l-1.91.8-.215-.513.518-.218-.618-1.476-.519.218-.215-.514 1.188-.498.257.44c-.027-.381.154-.702.46-.83a1.17 1.17 0 0 1 .33-.088l.184.782a1.023 1.023 0 0 0-.304.083c-.311.13-.38.454-.32.822l.312.745.636-.267zm-.897 6.726l4.522-1.973L12.8 6.33 8.278 8.304zM7.707 7.025L12.345 5l-1.563-3.58-4.638 2.023z"/></svg>